<mxfile host="app.diagrams.net" modified="2023-04-05T16:34:20.637Z" agent="Mozilla/5.0 (Macintosh; Intel Mac OS X 10_15_7) AppleWebKit/605.1.15 (KHTML, like Gecko) Version/16.3 Safari/605.1.15" etag="mXz0zYaoBB3we8oCKeag" version="21.1.4" type="device">
  <diagram name="Page-1" id="6ECePijwYtwbK1DcByJl">
    <mxGraphModel dx="952" dy="535" grid="1" gridSize="10" guides="1" tooltips="1" connect="1" arrows="1" fold="1" page="1" pageScale="1" pageWidth="827" pageHeight="1169" math="0" shadow="0">
      <root>
        <mxCell id="0" />
        <mxCell id="1" parent="0" />
        <mxCell id="VgrVSwqTmUloAu7nf6hx-13" style="edgeStyle=orthogonalEdgeStyle;rounded=0;orthogonalLoop=1;jettySize=auto;html=1;entryX=1;entryY=0.5;entryDx=0;entryDy=0;entryPerimeter=0;strokeWidth=3;fillColor=#1ba1e2;strokeColor=#006EAF;dashed=1;dashPattern=1 2;" edge="1" parent="1" source="VgrVSwqTmUloAu7nf6hx-3" target="VgrVSwqTmUloAu7nf6hx-19">
          <mxGeometry relative="1" as="geometry">
            <mxPoint x="368" y="209" as="targetPoint" />
          </mxGeometry>
        </mxCell>
        <mxCell id="VgrVSwqTmUloAu7nf6hx-3" value="&lt;font style=&quot;font-size: 14px;&quot;&gt;AIRq basic device N&lt;/font&gt;" style="sketch=0;outlineConnect=0;fontColor=#232F3E;gradientColor=none;fillColor=#3F8624;strokeColor=none;dashed=0;verticalLabelPosition=bottom;verticalAlign=top;align=center;html=1;fontSize=12;fontStyle=0;aspect=fixed;pointerEvents=1;shape=mxgraph.aws4.iot_thing_freertos_device;" vertex="1" parent="1">
          <mxGeometry x="560" y="173" width="78" height="78" as="geometry" />
        </mxCell>
        <mxCell id="VgrVSwqTmUloAu7nf6hx-12" style="edgeStyle=orthogonalEdgeStyle;rounded=0;orthogonalLoop=1;jettySize=auto;html=1;strokeWidth=3;fillColor=#1ba1e2;strokeColor=#006EAF;dashed=1;dashPattern=1 2;entryX=0.52;entryY=-0.048;entryDx=0;entryDy=0;entryPerimeter=0;" edge="1" parent="1" source="VgrVSwqTmUloAu7nf6hx-4" target="VgrVSwqTmUloAu7nf6hx-19">
          <mxGeometry relative="1" as="geometry">
            <mxPoint x="329" y="170" as="targetPoint" />
          </mxGeometry>
        </mxCell>
        <mxCell id="VgrVSwqTmUloAu7nf6hx-4" value="&lt;font style=&quot;font-size: 14px;&quot;&gt;AIRq basic device 1&lt;/font&gt;" style="sketch=0;outlineConnect=0;fontColor=#232F3E;gradientColor=none;fillColor=#3F8624;strokeColor=none;dashed=0;verticalLabelPosition=bottom;verticalAlign=top;align=center;html=1;fontSize=12;fontStyle=0;aspect=fixed;pointerEvents=1;shape=mxgraph.aws4.iot_thing_freertos_device;" vertex="1" parent="1">
          <mxGeometry x="560" y="12" width="78" height="78" as="geometry" />
        </mxCell>
        <mxCell id="VgrVSwqTmUloAu7nf6hx-17" style="edgeStyle=orthogonalEdgeStyle;rounded=0;orthogonalLoop=1;jettySize=auto;html=1;exitX=0;exitY=0.5;exitDx=0;exitDy=0;exitPerimeter=0;entryX=1;entryY=0.5;entryDx=0;entryDy=0;entryPerimeter=0;strokeWidth=2;" edge="1" parent="1" target="VgrVSwqTmUloAu7nf6hx-14">
          <mxGeometry relative="1" as="geometry">
            <mxPoint x="290" y="209" as="sourcePoint" />
          </mxGeometry>
        </mxCell>
        <mxCell id="VgrVSwqTmUloAu7nf6hx-26" style="edgeStyle=orthogonalEdgeStyle;rounded=0;orthogonalLoop=1;jettySize=auto;html=1;endArrow=none;endFill=0;dashed=1;dashPattern=1 1;strokeWidth=3;strokeColor=#006EAF;" edge="1" parent="1" source="VgrVSwqTmUloAu7nf6hx-8">
          <mxGeometry relative="1" as="geometry">
            <mxPoint x="340" y="51" as="targetPoint" />
          </mxGeometry>
        </mxCell>
        <mxCell id="VgrVSwqTmUloAu7nf6hx-8" value="&lt;font style=&quot;font-size: 14px;&quot; color=&quot;#0f0f0f&quot;&gt;AIRq extension 1&lt;/font&gt;" style="sketch=0;outlineConnect=0;fillColor=#d80073;strokeColor=#A50040;dashed=0;verticalLabelPosition=bottom;verticalAlign=top;align=center;html=1;fontSize=12;fontStyle=0;aspect=fixed;pointerEvents=1;shape=mxgraph.aws4.iot_thing_freertos_device;fontColor=#ffffff;" vertex="1" parent="1">
          <mxGeometry x="120" y="12" width="78" height="78" as="geometry" />
        </mxCell>
        <mxCell id="VgrVSwqTmUloAu7nf6hx-16" style="edgeStyle=orthogonalEdgeStyle;rounded=0;orthogonalLoop=1;jettySize=auto;html=1;exitX=0;exitY=0.5;exitDx=0;exitDy=0;exitPerimeter=0;entryX=0.017;entryY=0.508;entryDx=0;entryDy=0;entryPerimeter=0;strokeWidth=2;" edge="1" parent="1" source="VgrVSwqTmUloAu7nf6hx-14" target="VgrVSwqTmUloAu7nf6hx-15">
          <mxGeometry relative="1" as="geometry">
            <Array as="points">
              <mxPoint x="70" y="209" />
              <mxPoint x="70" y="373" />
            </Array>
          </mxGeometry>
        </mxCell>
        <mxCell id="VgrVSwqTmUloAu7nf6hx-14" value="&lt;font style=&quot;font-size: 14px;&quot;&gt;Historical Cloud DB&lt;/font&gt;" style="sketch=0;points=[[0,0,0],[0.25,0,0],[0.5,0,0],[0.75,0,0],[1,0,0],[0,1,0],[0.25,1,0],[0.5,1,0],[0.75,1,0],[1,1,0],[0,0.25,0],[0,0.5,0],[0,0.75,0],[1,0.25,0],[1,0.5,0],[1,0.75,0]];outlineConnect=0;fontColor=#232F3E;gradientColor=#4D72F3;gradientDirection=north;fillColor=#3334B9;strokeColor=#ffffff;dashed=0;verticalLabelPosition=bottom;verticalAlign=top;align=center;html=1;fontSize=12;fontStyle=0;aspect=fixed;shape=mxgraph.aws4.resourceIcon;resIcon=mxgraph.aws4.cloud_development_kit;" vertex="1" parent="1">
          <mxGeometry x="120" y="170" width="78" height="78" as="geometry" />
        </mxCell>
        <mxCell id="VgrVSwqTmUloAu7nf6hx-15" value="&lt;font style=&quot;font-size: 14px;&quot;&gt;Grafana or custom app&lt;/font&gt;" style="image;aspect=fixed;html=1;points=[];align=center;fontSize=12;image=img/lib/azure2/management_governance/Metrics.svg;" vertex="1" parent="1">
          <mxGeometry x="129" y="340" width="60" height="65" as="geometry" />
        </mxCell>
        <mxCell id="VgrVSwqTmUloAu7nf6hx-18" value="&lt;font style=&quot;font-size: 14px;&quot;&gt;RADMON.ORG&lt;/font&gt;" style="shape=mxgraph.signs.safety.radiation;html=1;pointerEvents=1;fillColor=#e3c800;strokeColor=#000000;verticalLabelPosition=bottom;verticalAlign=top;align=center;fontColor=#000000;strokeWidth=4;" vertex="1" parent="1">
          <mxGeometry x="548" y="325.5" width="102" height="94" as="geometry" />
        </mxCell>
        <mxCell id="VgrVSwqTmUloAu7nf6hx-20" style="edgeStyle=orthogonalEdgeStyle;rounded=0;orthogonalLoop=1;jettySize=auto;html=1;exitX=0;exitY=0.5;exitDx=0;exitDy=0;exitPerimeter=0;strokeWidth=2;" edge="1" parent="1" source="VgrVSwqTmUloAu7nf6hx-19">
          <mxGeometry relative="1" as="geometry">
            <mxPoint x="540" y="370" as="targetPoint" />
            <Array as="points">
              <mxPoint x="268" y="212" />
              <mxPoint x="268" y="369" />
            </Array>
          </mxGeometry>
        </mxCell>
        <mxCell id="VgrVSwqTmUloAu7nf6hx-19" value="&lt;font color=&quot;#000000&quot;&gt;Raspberry Pi&lt;br&gt;MQTT Broker&lt;/font&gt;" style="shape=mxgraph.signs.safety.non-ionizing_radiation;html=1;pointerEvents=1;fillColor=#1ba1e2;strokeColor=#006EAF;verticalLabelPosition=bottom;verticalAlign=top;align=center;fontColor=#ffffff;" vertex="1" parent="1">
          <mxGeometry x="288" y="170" width="98" height="83" as="geometry" />
        </mxCell>
        <mxCell id="VgrVSwqTmUloAu7nf6hx-21" value="Sensors data" style="text;html=1;strokeColor=none;fillColor=none;align=center;verticalAlign=middle;whiteSpace=wrap;rounded=0;fontStyle=1" vertex="1" parent="1">
          <mxGeometry x="293.5" y="12" width="87" height="30" as="geometry" />
        </mxCell>
        <mxCell id="VgrVSwqTmUloAu7nf6hx-22" value="Sensors data" style="text;html=1;strokeColor=none;fillColor=none;align=center;verticalAlign=middle;whiteSpace=wrap;rounded=0;fontStyle=1" vertex="1" parent="1">
          <mxGeometry x="430" y="180" width="90" height="30" as="geometry" />
        </mxCell>
        <mxCell id="VgrVSwqTmUloAu7nf6hx-23" value="Raw data" style="text;html=1;strokeColor=none;fillColor=none;align=center;verticalAlign=middle;whiteSpace=wrap;rounded=0;fontStyle=1" vertex="1" parent="1">
          <mxGeometry x="210" y="180" width="60" height="30" as="geometry" />
        </mxCell>
        <mxCell id="VgrVSwqTmUloAu7nf6hx-24" value="Aggregated metrics" style="text;html=1;strokeColor=none;fillColor=none;align=center;verticalAlign=middle;whiteSpace=wrap;rounded=0;fontStyle=1" vertex="1" parent="1">
          <mxGeometry x="80" y="295.5" width="60" height="30" as="geometry" />
        </mxCell>
        <mxCell id="VgrVSwqTmUloAu7nf6hx-25" value="Radiation analysis data" style="text;html=1;strokeColor=none;fillColor=none;align=center;verticalAlign=middle;whiteSpace=wrap;rounded=0;fontStyle=1" vertex="1" parent="1">
          <mxGeometry x="287" y="340" width="143" height="30" as="geometry" />
        </mxCell>
      </root>
    </mxGraphModel>
  </diagram>
</mxfile>
